<?xml version="1.0" encoding="utf-8"?>
<!-- Svg Vector Icons : http://www.onlinewebfonts.com/icon -->
<!DOCTYPE svg PUBLIC "-//W3C//DTD SVG 1.1//EN" "http://www.w3.org/Graphics/SVG/1.1/DTD/svg11.dtd">
<svg version="1.1" xmlns="http://www.w3.org/2000/svg" xmlns:xlink="http://www.w3.org/1999/xlink" x="0px" y="0px" viewBox="0 0 256 256" enable-background="new 0 0 256 256" xml:space="preserve">
<metadata> Svg Vector Icons : http://www.onlinewebfonts.com/icon </metadata>
<g><g><g><path fill="#000000" d="M124.8,10.5c-2.5,1.3-3,4.4-1.1,6.2c1,0.9,2,1.1,8.3,1.6c9,0.6,16.1,2,24.4,4.7c28.4,9.3,51.8,31.9,62.4,60c3.5,9.4,6.1,22.7,6.1,31.3c0,3.1,0.1,3.5,1.4,4.9c1.6,1.6,2.5,1.7,4.5,0.7c1.9-1,2.2-2.2,1.8-9.5c-1.6-32.7-20.2-64.2-49-83.2c-6.3-4.1-17.1-9.3-24.4-11.8C147.4,11.5,128,8.8,124.8,10.5z"/><path fill="#000000" d="M124.5,35c-1.7,1.8-1.8,3.4-0.3,5.3c1.1,1.3,1.4,1.3,7.8,1.7c3.6,0.2,8.2,0.7,10,1.1c13.7,3,25.8,9.4,36,19.2c14.1,13.5,22.1,30.5,23.1,49.3c0.2,4.5,0.5,5.9,1.2,6.8c1.3,1.7,4.2,1.6,5.8,0c1.1-1.2,1.1-1.4,0.8-7.7c-1.2-24.9-14.8-48.7-36.2-63.1c-11.2-7.5-23.9-12.1-37.4-13.5C127.4,33.2,126.2,33.4,124.5,35z"/><path fill="#000000" d="M127.7,58.5c-3.3,0.4-4.8,4-2.8,6.5c0.8,1,1.5,1.1,6.5,1.5c6,0.4,8.4,0.8,12.8,2.3c18.1,6.3,30.9,23,32.2,42c0.4,6.1,0.5,6.6,2.2,7.5c2.1,1.1,2.9,0.9,4.5-0.8l1.5-1.5l-0.3-5.5c-1.1-19.5-12.9-37.5-30.5-46.4C146.3,60.4,134.1,57.7,127.7,58.5z"/><path fill="#000000" d="M137.8,82.4c-6.8,1.5-11.7,6-14,13l-1,3.2l-5.9,1.5c-28.2,7.5-60.1,16.1-60.7,16.3c-0.5,0.1,0.3,1.3,2.8,3.7l3.5,3.5l30.5-8.2c16.8-4.5,30.8-8.1,31-8c0.2,0.1,0.7,1,1,1.8l0.6,1.5l-19,19l-19,19l1.8,1.7c1,1,2.5,2.3,3.2,3l1.4,1.2l18.8-18.8l18.8-18.8l1.8,0.6c1.6,0.6,1.8,0.8,1.5,1.9c-0.1,0.7-3.8,14.4-8.2,30.5c-4.3,16.1-7.8,29.5-7.8,29.8c0,0.2,1.5,2,3.4,3.8l3.4,3.3l0.7-2.6c0.4-1.5,4.4-16.5,9-33.4c4.5-16.9,8.5-31,8.7-31.4c0.3-0.3,1-0.6,1.6-0.6c1.9,0,7.1-2.9,9.3-5.2c10.5-10.7,4.7-28.9-10.1-31.7C142,81.7,141.3,81.7,137.8,82.4z"/><path fill="#000000" d="M37.6,114.6c-6.8,8.2-11.8,19.4-13.7,30.6c-1.1,6.7-0.7,18.5,0.7,24.4c3,12.2,8.8,22.6,17,30.9c13.2,13.2,29.7,19.7,48.2,18.9c12.6-0.5,23-3.8,33.1-10.7c4.8-3.2,7.5-5.6,7.5-6.5c0-0.9-89.1-89.9-90.1-89.9C39.9,112.2,38.7,113.3,37.6,114.6z"/><path fill="#000000" d="M46.2,222c-3.8,3.8-4.9,5.3-6.6,8.8c-2.9,6-4.3,13.2-2.9,14.6c0.4,0.4,8.4,0.6,32.9,0.6c17.8,0,32.7-0.1,33.1-0.3c2.2-0.8-0.2-11.6-3.9-17.5l-1.2-2l-5.5,0.3c-10.7,0.7-22.8-1.5-33.2-5.9c-3-1.3-5.6-2.5-5.8-2.8C52.2,216.7,50.4,217.8,46.2,222z"/></g></g></g>
</svg>