<svg xml:space="preserve" style="max-height: 500px" viewBox="21.2986232 257.757768 140.832 138.224" y="0px" x="0px" xmlns:xlink="http://www.w3.org/1999/xlink" xmlns="http://www.w3.org/2000/svg" id="layer" version="1.1" width="140.832" height="138.224">
<style type="text/css">
	.st0{fill:#0083CA;}
	.st1{fill:#008DD2;}
</style>
<path d="M210.1,351h-19.7v-50.2h16.9c6.6,0,11.9,1.2,15.8,3.6c2.4,1.4,4.4,3.4,6.1,5.8c3,4.3,4.5,9.5,4.5,15.5&#xA;&#9;c0,7.7-2.2,13.7-6.4,18.4C222.9,348.7,217.2,351,210.1,351L210.1,351z M203.2,312.2v27.5h5.5c8.1,0,12.3-4.5,12.3-13.5&#xA;&#9;c0-4.4-1-7.9-3.1-10.3c-2.1-2.5-5.1-3.6-9-3.6C208.9,312.2,203.2,312.2,203.2,312.2z M250.9,351h-11.3v-37.7h10.7v4&#xA;&#9;c2-3.5,5-5.3,9.1-5.3h0.3v11.4c-3.2,0.1-5.5,0.6-6.8,1.6c-1.3,1-2,2.7-2,5.2C250.9,330.2,250.9,351,250.9,351z M282.6,352.2&#xA;&#9;c-5.9,0-10.7-1.9-14.6-5.7c-3.9-3.8-5.8-8.5-5.8-14.2c0-5.9,1.9-10.7,5.8-14.6c3.9-3.9,8.7-5.8,14.6-5.8c5.8,0,10.7,1.9,14.5,5.7&#xA;&#9;c3.9,3.8,5.8,8.6,5.8,14.4s-1.9,10.6-5.8,14.4C293.2,350.4,288.4,352.2,282.6,352.2z M282.6,322.5c-2.6,0-4.7,0.9-6.4,2.7&#xA;&#9;c-1.8,1.9-2.7,4.1-2.7,6.8c0,2.7,0.9,5.1,2.6,6.9c1.7,1.9,3.9,2.7,6.5,2.7c2.6,0,4.7-0.9,6.4-2.7c1.7-1.9,2.6-4.2,2.6-6.9&#xA;&#9;c0-2.7-0.9-4.9-2.6-6.8C287.2,323.5,285.2,322.5,282.6,322.5L282.6,322.5z M320,351h-11.3v-37.7h10.7v4c2.5-3.5,5.9-5.3,10.3-5.3&#xA;&#9;c4.1,0,7.5,1.3,10.1,3.9c1.4,1.4,2.5,2.9,2.9,4.5c0.6,1.6,0.8,3.9,0.8,7V351h-11.3v-20.6c0-5.2-2-7.9-5.9-7.9&#xA;&#9;c-4.3,0-6.4,2.5-6.4,7.4C320,329.9,320,351,320,351z M375.3,339.7l0.6-0.6h11.5c-1.8,4.1-4.3,7.3-7.5,9.6c-3.2,2.3-6.8,3.5-10.8,3.5&#xA;&#9;c-5.5,0-10.2-2-14-5.9c-3.8-3.9-5.8-8.6-5.8-14.2s1.9-10.4,5.7-14.3s8.4-5.9,13.8-5.9c5.6,0,10.3,2,14.1,5.9c3.8,4,5.7,8.8,5.7,14.7&#xA;&#9;c0,0.9-0.1,1.9-0.3,3.1H360c0.3,2.1,1.1,3.8,2.7,5.1c1.5,1.3,3.4,1.9,5.6,1.9C370.8,342.7,373.1,341.7,375.3,339.7L375.3,339.7z&#xA;&#9; M360.3,328.2h16.9c-0.4-2-1.4-3.5-2.9-4.7c-1.5-1.2-3.4-1.8-5.6-1.8C364.1,321.7,361.3,323.8,360.3,328.2z M411.2,351h-15.6v-50.2&#xA;&#9;h17.8c6.9,0,12.5,2.3,16.9,6.7c4.8,5,7.3,11.3,7.3,18.6c0,7.1-2.1,12.9-6.3,17.5C426.9,348.6,420.1,351,411.2,351L411.2,351z&#xA;&#9; M402.9,307.6v36.7h6c6.7,0,11.8-1.4,15.2-4.3c4.1-3.3,6.1-8,6.1-13.9c0-5.4-1.8-9.8-5.3-13.5c-3.3-3.3-7.7-5-13-5H402.9&#xA;&#9;L402.9,307.6z M472.6,339.2h7.1c-1.4,3.9-3.7,7-7,9.4c-3.2,2.3-6.9,3.5-11,3.5c-5.3,0-9.8-2-13.5-5.9s-5.7-8.5-5.7-14&#xA;&#9;s1.9-10.2,5.7-14.1c3.8-3.9,8.3-5.9,13.7-5.9c5.2,0,9.7,1.9,13.4,5.8c3.7,3.9,5.6,8.4,5.6,13.8c0,0.8-0.1,2-0.2,3.6h-31.1&#xA;&#9;c0.8,3.1,2.3,5.6,4.4,7.5c2.3,1.9,4.9,2.8,8,2.8C466.5,345.5,470.1,343.4,472.6,339.2L472.6,339.2z M452.4,322.6&#xA;&#9;c-1.5,1.7-2.5,4.1-2.9,7.2h24.3c-0.2-3.1-1.4-5.8-3.8-8c-2.4-2.2-5.1-3.3-8.3-3.3C457.9,318.5,454.9,320,452.4,322.6L452.4,322.6z&#xA;&#9; M494.6,363.6h-6.8v-50.2h6.5v5.8c3-4.5,7.5-6.8,13.3-6.8c5.5,0,10.1,2,13.8,5.9c3.7,3.9,5.6,8.7,5.6,14.5c0,5.5-1.8,10-5.5,13.7&#xA;&#9;s-8.1,5.6-13.5,5.6c-6.2,0-10.7-2.2-13.4-6.4V363.6z M507.4,345.6c3.6,0,6.5-1.3,9-3.9c2.5-2.6,3.7-5.7,3.7-9.4s-1.2-6.8-3.8-9.5&#xA;&#9;c-2.6-2.7-5.6-4-9.2-4c-3.5,0-6.4,1.3-8.9,3.9c-2.5,2.6-3.7,5.7-3.7,9.4c0,3.8,1.2,6.9,3.7,9.6C500.8,344.3,503.8,345.6,507.4,345.6&#xA;&#9;z M534,300.8h7V351h-7V300.8z M568.2,312.4c5.6,0,10.4,1.9,14.4,5.7c4,3.8,6,8.4,6,13.8c0,5.5-2,10.2-6,14.1&#xA;&#9;c-4,3.9-8.7,5.9-14.4,5.9c-5.6,0-10.3-2-14.3-5.9c-4-3.9-6-8.6-6-14.1c0-5.4,2-10,6-13.8S562.6,312.4,568.2,312.4z M568.2,345.5&#xA;&#9;c3.7,0,6.8-1.3,9.4-3.9c2.6-2.7,3.9-5.8,3.9-9.5c0-3.6-1.3-6.7-3.9-9.4c-2.6-2.6-5.7-3.9-9.4-3.9c-3.7,0-6.8,1.3-9.4,3.9&#xA;&#9;s-3.9,5.7-3.9,9.4s1.3,6.8,3.9,9.5C561.4,344.2,564.5,345.5,568.2,345.5z M619.3,313.3h7.6l-20.7,50.2h-7.3l5.5-13.3l-15-36.8h7.6&#xA;&#9;l11.1,29.2C608.1,342.5,619.3,313.3,619.3,313.3z"/>
<path d="M55.4,313.1c0,0,10.6-8,14.1-7.2l53.7-0.4L96,351.9c-2.7,4-13.3,8.6-13.3,8.6l3.5-33.6&#xA;&#9;C86.3,326.9,55.4,313.1,55.4,313.1z" class="st0"/>
<path d="M91.7,261.6c17.9,0,34.1,7.3,45.8,18.9c11.7,11.7,18.9,27.9,18.9,45.8h0.1v0.1h-0.1c0,17.8-7.2,34-18.9,45.6&#xA;&#9;c-11.7,11.7-27.8,19-45.8,19v-10.3c15,0,28.6-6.2,38.4-15.9c9.8-9.8,16-23.5,16-38.3H146v-0.1h0.1c0-15-6.2-28.6-15.9-38.4&#xA;&#9;c-9.9-9.9-23.6-16.1-38.5-16.1C91.7,272,91.7,261.6,91.7,261.6z M91.7,391.2c-17.9,0-34.1-7.3-45.8-19&#xA;&#9;c-11.7-11.6-18.9-27.8-18.9-45.6v-0.1c0-17.9,7.2-34.1,18.9-45.8c11.7-11.6,27.9-18.9,45.8-18.9V272c-15,0-28.6,6.1-38.4,15.9&#xA;&#9;c-9.8,9.9-16,23.6-16,38.5v0.1c0,15,6.1,28.5,15.9,38.3s23.5,15.9,38.4,15.9L91.7,391.2L91.7,391.2z" class="st1"/>
</svg>