<svg xml:space="preserve" style="max-height: 500px" viewBox="21.2986232 257.757768 140.832 138.224" y="0px" x="0px" xmlns:xlink="http://www.w3.org/1999/xlink" xmlns="http://www.w3.org/2000/svg" id="layer" version="1.1" width="140.832" height="138.224">
<style type="text/css">
	.st0{fill:#0083CA;}
	.st1{fill:#008DD2;}
</style>
<path d="M55.4,313.1c0,0,10.6-8,14.1-7.2l53.7-0.4L96,351.9c-2.7,4-13.3,8.6-13.3,8.6l3.5-33.6&#xA;&#9;C86.3,326.9,55.4,313.1,55.4,313.1z" class="st0"/>
<path d="M91.7,261.6c17.9,0,34.1,7.3,45.8,18.9c11.7,11.7,18.9,27.9,18.9,45.8h0.1v0.1h-0.1c0,17.8-7.2,34-18.9,45.6&#xA;&#9;c-11.7,11.7-27.8,19-45.8,19v-10.3c15,0,28.6-6.2,38.4-15.9c9.8-9.8,16-23.5,16-38.3H146v-0.1h0.1c0-15-6.2-28.6-15.9-38.4&#xA;&#9;c-9.9-9.9-23.6-16.1-38.5-16.1C91.7,272,91.7,261.6,91.7,261.6z M91.7,391.2c-17.9,0-34.1-7.3-45.8-19&#xA;&#9;c-11.7-11.6-18.9-27.8-18.9-45.6v-0.1c0-17.9,7.2-34.1,18.9-45.8c11.7-11.6,27.9-18.9,45.8-18.9V272c-15,0-28.6,6.1-38.4,15.9&#xA;&#9;c-9.8,9.9-16,23.6-16,38.5v0.1c0,15,6.1,28.5,15.9,38.3s23.5,15.9,38.4,15.9L91.7,391.2L91.7,391.2z" class="st1"/>
</svg>