<?xml version="1.0" encoding="utf-8"?>
<!-- Generator: Adobe Illustrator 19.2.1, SVG Export Plug-In . SVG Version: 6.00 Build 0)  -->
<svg version="1.1" id="layer" xmlns="http://www.w3.org/2000/svg" xmlns:xlink="http://www.w3.org/1999/xlink" x="0px" y="0px"
	 viewBox="0 0 652 652" style="enable-background:new 0 0 652 652;" xml:space="preserve">
<style type="text/css">
	.st0{fill:#1B1B1B;}
	.st1{fill:none;stroke:#1B1B1B;stroke-width:2.1603;stroke-miterlimit:10;}
	.st2{fill:#3878BB;}
	.st3{fill:#8A8B8B;}
	.st4{fill:#EC675F;}
</style>
<path class="st0" d="M355.2,382.9h-33.7v-57h-49.6v57h-33.7V253.6h33.7v47.2h49.6v-47.2h33.7C355.2,253.6,355.2,382.9,355.2,382.9z
	 M496.8,318.5c0,12.3-2.5,22.7-8,32.5c-5.5,9.8-12.3,16.5-20.8,22.1c-6.1,3.7-13.5,6.7-20.8,8c-7.4,1.2-16.5,2.5-27,2.5h-46V253.6
	h47.2c10.4,0,19.6,0.6,27.6,2.5c7.4,1.8,14.1,4.3,19.6,7.4c9.2,5.5,15.9,12.9,20.8,22.1C494.3,295.2,496.8,305.7,496.8,318.5
	L496.8,318.5z M462.4,318.5c0-8.6-1.8-15.9-4.9-22.1c-3.1-6.1-8-11-14.7-14.1c-3.7-1.8-6.7-3.1-10.4-3.7s-9.2-1.2-15.9-1.2h-8.6
	v80.9h8.6c8,0,13.5-0.6,17.8-1.2c3.7-0.6,7.4-1.8,11-4.3c6.1-3.7,10.4-8,13.5-14.1C460.6,333.9,462.4,327.1,462.4,318.5z"/>
<path class="st0" d="M621.2,382.9h-38.6L554.4,340l-28.2,42.9h-36.8l46-65.6L490.6,253h38.6l27,40.4l27.6-40.4h36.8l-45.4,63.1
	L621.2,382.9z"/>
<path class="st1" d="M86.3,303.1l62.8,88.9 M86.3,303.1l79.7,23.7 M86.3,303.1l82-42.9 M35.7,365.9l114.1,26 M86.3,303.1L48,261"/>
<path class="st2" d="M120,303.1c0,18.4-15.3,33.7-33.7,33.7s-33.7-15.3-33.7-33.7c0-18.4,15.3-33.7,33.7-33.7
	C105.4,269.4,120,284.7,120,303.1"/>
<path class="st1" d="M120,303.1c0,18.4-15.3,33.7-33.7,33.7s-33.7-15.3-33.7-33.7c0-18.4,15.3-33.7,33.7-33.7
	C105.4,269.4,120,284.7,120,303.1z"/>
<path class="st3" d="M164.4,392c0,8.4-6.9,14.6-14.6,14.6s-15.3-6.9-15.3-14.6c0-8.4,6.9-14.6,14.6-14.6S164.4,383.5,164.4,392"/>
<path class="st1" d="M164.4,392c0,8.4-6.9,14.6-14.6,14.6s-15.3-6.9-15.3-14.6c0-8.4,6.9-14.6,14.6-14.6S164.4,383.5,164.4,392z"/>
<path class="st3" d="M182.8,326.8c0,8.4-6.9,14.6-14.6,14.6c-8.4,0-14.6-6.9-14.6-14.6s6.9-14.6,14.6-14.6
	C176.7,312.3,182.8,318.4,182.8,326.8"/>
<path class="st1" d="M182.8,326.8c0,8.4-6.9,14.6-14.6,14.6c-8.4,0-14.6-6.9-14.6-14.6s6.9-14.6,14.6-14.6
	C176.7,312.3,182.8,318.4,182.8,326.8z"/>
<path class="st4" d="M192,260.2c0,13-10.7,23.7-23.7,23.7c-13,0-23.7-10.7-23.7-23.7c0-13,10.7-23.7,23.7-23.7
	C181.3,236.4,192,247.2,192,260.2"/>
<path class="st1" d="M192,260.2c0,13-10.7,23.7-23.7,23.7c-13,0-23.7-10.7-23.7-23.7c0-13,10.7-23.7,23.7-23.7
	C181.3,236.4,192,247.2,192,260.2L192,260.2z"/>
<path class="st3" d="M50.3,367.4c0,7.7-6.9,14.6-14.5,14.6c-8.4,0-14.6-6.9-14.6-14.6c0-8.4,6.1-15.3,14.6-15.3
	C43.4,352.1,50.3,359,50.3,367.4"/>
<path class="st1" d="M50.3,367.4c0,7.7-6.9,14.6-14.5,14.6c-8.4,0-14.6-6.9-14.6-14.6c0-8.4,6.1-15.3,14.6-15.3
	C43.4,352.1,50.3,359,50.3,367.4L50.3,367.4z"/>
<path class="st3" d="M57.2,253.3c0,8.4-6.9,14.6-14.6,14.6c-8.4,0-15.3-6.1-15.3-14.6c0-8.4,6.9-14.6,14.6-14.6
	C50.3,238.7,57.2,245.6,57.2,253.3"/>
<path class="st1" d="M57,253.5c0,8.4-6.9,14.6-14.6,14.6c-8.4,0-14.6-6.1-14.6-14.6c0-8.4,6.9-14.6,14.6-14.6S57,245,57,253.5z"/>
</svg>
