<svg xmlns="http://www.w3.org/2000/svg" fill="none" viewBox="0 0 124.264 120" style="max-height: 500px" width="124.264" height="120">
<path fill="#4051CC" d="M75.8921 6.33283C87.4651 11.2244 95.572 22.6721 95.572 36.0427C95.572 44.2671 92.5015 51.7592 87.4455 57.4497C86.7914 56.2082 85.9807 53.7996 87.1008 50.5059C88.4128 46.6561 86.157 41.7332 83.4664 39.6967C81.939 38.5374 79.5304 39.9786 78.097 40.2215C75.1558 40.7345 73.3543 39.3207 71.8308 35.2006C69.3047 28.3822 74.255 24.6381 77.1062 23.3888C79.9495 22.1355 82.6205 20.193 84.4338 21.0977C85.6478 21.6969 85.8868 23.1224 86.298 23.4593C87.4572 24.4109 88.7575 24.9279 90.1165 23.7726C91.9572 22.2021 86.8737 17.2831 83.8385 17.5337C80.4038 17.8118 80.1649 19.351 78.3359 20.471C76.4952 21.595 73.4169 21.6538 73.789 18.7204C74.2472 15.1095 78.6101 18.3758 77.4273 14.2205C76.2407 10.8954 79.037 13.6957 80.2197 12.0351C81.4025 10.3746 79.178 9.2388 77.9286 10.5077C76.6871 11.7805 75.101 10.5155 75.661 7.45292C75.7903 6.75189 75.8373 6.5639 75.8882 6.32891L75.8921 6.33283ZM51.3206 6.12134C51.5752 7.19444 52.2253 9.43462 53.2475 10.1866C54.6104 11.1853 55.2918 13.1826 53.5882 13.9659C51.8806 14.7413 51.2266 15.1565 52.3349 15.6265C53.4394 16.1003 52.6208 18.2661 50.9994 17.71C49.378 17.1538 47.4159 16.3236 47.2749 18.0703C47.1339 19.8209 45.9551 21.8418 45.07 22.8405C44.1849 23.8431 43.3194 24.2112 43.6288 25.5663C43.9421 26.9292 43.0766 27.9866 42.5518 26.8195C42.027 25.6524 39.9121 25.5428 38.5688 26.843C38.5688 26.843 34.8717 31.0062 36.8064 31.4017C39.2072 31.8991 41.98 32.0675 42.7162 34.6797C43.2019 36.3755 44.3063 37.7855 46.5269 36.8416C48.7436 35.8978 51.4772 35.7058 53.6508 37.9029C55.8244 40.1 57.3362 37.5466 59.639 42.6575C62.0515 45.8767 68.1846 40.5191 64.8322 50.4707C62.7447 56.6703 60.3205 53.6077 59.7722 56.267C58.8714 60.6102 52.2879 66.2577 52.2879 66.2577L47.3807 63.9862C47.3807 63.9862 49.6287 54.0855 47.3807 52.2801C45.1248 50.4707 42.6693 45.0895 43.2763 42.5791C43.8755 40.0648 45.2893 39.2424 41.9878 37.4369C38.6902 35.6314 39.2933 33.9043 36.7986 33.3168C34.7738 32.8312 32.1576 33.309 31.2059 33.5087C31.2882 32.4474 31.4213 31.4056 31.6093 30.3717L32.8861 25.4527C35.9409 16.6447 42.7045 9.58344 51.3167 6.12526L51.3206 6.12134ZM63.3361 7.62939e-06C43.4525 7.62939e-06 27.2935 16.163 27.2935 36.0427C27.2935 55.9223 43.4564 72.0892 63.34 72.0892C83.2236 72.0892 99.3827 55.9262 99.3827 36.0427C99.3827 16.1591 83.2197 7.62939e-06 63.3361 7.62939e-06Z" clip-rule="evenodd" fill-rule="evenodd"/>
<path fill="url(#paint0_linear_159_1863)" d="M112.495 85.0173L124.224 91.0289L62.2551 119.266L0.458219 86.1021L12.1878 81.1322L17.5102 83.9912L17.1343 84.1596C17.1773 84.2849 17.2165 84.4102 17.2165 84.5551C17.2165 85.076 16.7779 85.5146 16.257 85.5146C15.8379 85.5146 15.505 85.2836 15.3601 84.9311L11.3928 86.6426L15.2936 88.73V88.6047C15.2936 87.7078 16.022 86.9755 16.9228 86.9755C17.8235 86.9755 18.552 87.7039 18.552 88.6047C18.552 89.2078 18.2191 89.7522 17.7178 90.0224L25.8796 94.4049C25.9618 93.9662 26.3613 93.6334 26.8195 93.6334C27.3404 93.6334 27.779 94.072 27.779 94.5929C27.779 94.8435 27.6733 95.0942 27.5088 95.2626L35.1262 99.3552C34.9578 99.1046 34.8756 98.8147 34.8756 98.5014C34.8756 97.6046 35.604 96.8722 36.5048 96.8722C37.4056 96.8722 38.134 97.6007 38.134 98.5014C38.134 99.4022 37.4447 100.088 36.5674 100.131L47.9642 106.244C48.1091 105.492 48.7592 104.952 49.5503 104.952C50.4472 104.952 51.1795 105.68 51.1795 106.581C51.1795 107.02 51.0111 107.415 50.7213 107.709L62.494 113.991L69.2146 110.924C68.9443 110.634 68.7759 110.235 68.7759 109.82C68.7759 108.923 69.5044 108.191 70.4052 108.191C71.2394 108.191 71.9482 108.837 72.0344 109.651L97.2286 98.1725C97.209 98.0902 97.1855 98.0041 97.1855 97.9218C97.1855 97.4009 97.6242 96.9623 98.145 96.9623C98.4779 96.9623 98.7717 97.1503 98.9401 97.4009L104.513 94.8553C103.804 94.6869 103.26 94.0407 103.26 93.2691C103.26 92.3723 103.988 91.6399 104.889 91.6399C105.79 91.6399 106.518 92.3683 106.518 93.2691C106.518 93.5394 106.456 93.79 106.33 94.0211L111.59 91.6203C111.089 91.3501 110.736 90.8057 110.736 90.1791C110.736 89.9284 110.779 89.6974 110.881 89.4898L107.039 87.5277L112.506 85.0251L112.495 85.0173ZM79.8515 102.277C79.8515 101.376 79.1231 100.648 78.2223 100.648C77.3215 100.648 76.5931 101.376 76.5931 102.277C76.5931 103.178 77.3215 103.906 78.2223 103.906C79.1231 103.906 79.8515 103.178 79.8515 102.277ZM91.0838 99.5628C91.0838 98.662 90.3553 97.9336 89.4545 97.9336C88.5538 97.9336 87.8253 98.662 87.8253 99.5628C87.8253 100.464 88.5538 101.192 89.4545 101.192C90.3553 101.192 91.0838 100.464 91.0838 99.5628ZM98.1176 93.6138C98.1176 92.713 97.3892 91.9845 96.4884 91.9845C95.5876 91.9845 94.8592 92.713 94.8592 93.6138C94.8592 94.5145 95.5876 95.243 96.4884 95.243C97.3892 95.243 98.1176 94.5145 98.1176 93.6138ZM60.34 108.202C60.34 107.302 59.6116 106.573 58.7108 106.573C57.81 106.573 57.0816 107.302 57.0816 108.202C57.0816 109.103 57.81 109.832 58.7108 109.832C59.6116 109.832 60.34 109.103 60.34 108.202ZM25.6289 89.3958C26.0676 89.3958 26.4827 89.2274 26.7764 88.9376L24.0232 87.4572C24.0036 87.5629 24.0036 87.6648 24.0036 87.7705C24.0036 88.6674 24.7321 89.3958 25.6329 89.3958H25.6289ZM45.5203 100.769C46.19 100.769 46.7736 100.373 47.0242 99.7899L44.1457 98.2469C43.9773 98.4975 43.895 98.8108 43.895 99.1241C43.895 100.044 44.6235 100.773 45.5243 100.773L45.5203 100.769ZM30.1171 92.901C30.1171 93.7978 30.8456 94.5302 31.7464 94.5302C32.6471 94.5302 33.3756 93.8018 33.3756 92.901C33.3756 92.7326 33.356 92.5877 33.3129 92.4193L31.2686 91.3344C30.6028 91.5224 30.121 92.149 30.121 92.901H30.1171ZM124.228 77.0395L62.259 105.277L0.458219 72.1166L11.2283 67.4639L15.9868 70.0096L16.5507 70.3229L19.0533 71.6584L21.1838 77.8581L26.1302 80.5095L24.0232 74.3098L27.0898 75.9586L29.1968 82.1583L34.3116 84.9115L32.2046 78.7119L35.2711 80.3607L37.3781 86.5603L42.1992 89.1491L40.0922 82.9494L43.1588 84.5982L45.2462 90.7783L50.361 93.5315L48.254 87.3319L51.3205 88.9807L53.4276 95.1803L58.3113 97.7495L56.2043 91.5498L59.2708 93.1986L61.3779 99.3944L62.4196 99.9583L65.4274 98.5798L63.7159 93.5707L65.8856 92.5916L67.5971 97.6007L71.2903 95.9323L69.5788 90.9232L71.7485 89.9441L73.46 94.9532L77.5918 93.0733L75.8803 88.0642L78.05 87.0851L79.7614 92.0942L83.3724 90.4454L81.6609 85.4363L83.8306 84.4572L85.5421 89.4663L89.8227 87.5238L88.1112 82.5147L90.2809 81.5356L91.9924 86.5447L96.1242 84.6648L94.4127 79.6557L96.5824 78.6766L98.2939 83.6857L101.905 82.0369L100.193 77.0278L102.363 76.0487L104.074 81.0578L108.206 79.1779L106.495 74.1688L107.415 73.7498L108.668 73.1858L112.906 71.2433L124.217 77.0474L124.228 77.0395ZM11.3302 72.5984L18.0938 76.2289L16.1512 70.5109L11.3302 72.5984ZM110.407 78.191L113.415 76.8124L109.197 74.6427L110.407 78.191ZM74.0083 105.304C74.0083 104.024 72.0892 104.024 72.0892 105.304C72.0892 106.585 74.0083 106.585 74.0083 105.304ZM65.7016 110.125C65.7016 108.845 63.7825 108.845 63.7825 110.125C63.7825 111.406 65.7016 111.406 65.7016 110.125ZM41.929 100.107C41.929 98.8265 40.01 98.8265 40.01 100.107C40.01 101.388 41.929 101.388 41.929 100.107ZM49.2331 102.277C49.2331 100.996 47.3141 100.996 47.3141 102.277C47.3141 103.558 49.2331 103.558 49.2331 102.277ZM22.6603 89.9833C22.6603 88.7026 20.7413 88.7026 20.7413 89.9833C20.7413 91.2639 22.6603 91.2639 22.6603 89.9833ZM85.17 102.026C85.17 100.746 83.251 100.746 83.251 102.026C83.251 103.307 85.17 103.307 85.17 102.026ZM93.0185 95.619C93.0185 94.3383 91.0994 94.3383 91.0994 95.619C91.0994 96.8996 93.0185 96.8996 93.0185 95.619ZM55.0529 104.928C55.0529 103.648 53.1338 103.648 53.1338 104.928C53.1338 106.209 55.0529 106.209 55.0529 104.928ZM97.0994 50.69C96.9701 51.0111 96.8291 51.3245 96.6921 51.6417C96.6451 51.7435 96.5981 51.8493 96.5511 51.9511C96.0889 52.9654 95.5837 53.9524 95.0354 54.9158L112.894 63.5436L61.9849 86.6465L10.8954 59.2199L29.3965 51.0699C29.3848 51.0425 29.373 51.0151 29.3613 50.9837C29.1811 50.5529 29.0088 50.1182 28.8443 49.6756C28.7621 49.4602 28.6876 49.2448 28.6093 49.0255C28.5349 48.818 28.4683 48.6104 28.3978 48.4028C28.1903 47.7762 27.9944 47.1457 27.8182 46.5034L0 58.7617L14.0051 66.2773L19.3274 69.1363L22.8757 71.0553L25.9422 72.7041L31.0571 75.4573L34.1236 77.1061L38.9447 79.6949L42.0112 81.3437L47.1261 84.0969L50.1926 85.7457L55.0999 88.3775L58.1664 90.0263L61.7969 91.9689L62.964 91.4245L65.1337 90.4454L68.8073 88.777L70.977 87.7979L75.1088 85.918L77.2785 84.9389L80.8894 83.2901L83.0591 82.311L87.3397 80.3685L89.5094 79.3894L93.6412 77.5095L95.8109 76.5304L99.4218 74.8816L101.591 73.9025L104.721 72.4848L105.723 72.0266L107.893 71.0475L110.211 69.9822L123.758 63.8021L97.0915 50.6978L97.0994 50.69Z"/>
<defs>
<linearGradient gradientUnits="userSpaceOnUse" y2="117.582" x2="173.9" y1="60.3048" x1="8.36935" id="paint0_linear_159_1863">
<stop stop-color="#4163CC" offset="0.09"/>
<stop stop-color="#14B3C4" offset="0.52"/>
<stop stop-color="#00E1AC" offset="0.86"/>
</linearGradient>
</defs>
</svg>