<svg xmlns="http://www.w3.org/2000/svg" xmlns:xlink="http://www.w3.org/1999/xlink" version="1.1" x="0px" y="0px" viewBox="20.875 0 78.375 79.25" enable-background="new 20.875 0 78.375 79.25" xml:space="preserve"><g><g><polygon points="54.674,31.672 48.946,24.972 58.598,15.321 64.325,22.022   "/></g><polygon points="48.308,24.368 42.579,17.667 52.229,8.017 57.957,14.718  "/><g><polygon points="41.941,17.064 36.212,10.364 45.862,0.713 51.59,7.415   "/></g></g><g><polygon points="80.261,40.134 70.61,49.783 76.074,56.221 85.723,46.572  "/><polygon points="93.209,54.957 83.559,64.606 89.023,71.043 98.672,61.396  "/><polygon points="86.404,47.215 76.754,56.863 82.219,63.303 91.867,53.652  "/><polygon points="82.846,34.901 77.634,26.891 68.301,20.354 68.144,20.51 68.144,20.51 60.221,28.433 52.453,36.201 52.454,36.201    52.299,36.355 57.512,44.367 66.846,50.902 82.535,35.212  "/></g><g><path d="M51.772,50.353c-3.461-3.225-5.196-7.452-5.21-11.687l-4.455-0.001c0.015,5.297,2.183,10.591,6.513,14.621   c4.332,4.031,10.015,6.051,15.703,6.064v-4.146C59.777,55.19,55.234,53.574,51.772,50.353z"/><path d="M44.682,56.953c-5.417-5.043-8.128-11.665-8.142-18.287l-4.454-0.002c0.014,7.686,3.161,15.37,9.446,21.225   c6.285,5.85,14.537,8.782,22.793,8.793v-4.147C57.209,64.523,50.099,61.995,44.682,56.953z"/></g><line stroke="#FFFFFF" stroke-width="2" stroke-miterlimit="10" x1="67.467" y1="25.375" x2="56.636" y2="35.875" fill="#000000"/><line stroke="#FFFFFF" stroke-width="2" stroke-miterlimit="10" x1="75.75" y1="27.5" x2="60.438" y2="42.5" fill="#000000"/><line stroke="#FFFFFF" stroke-width="2" stroke-miterlimit="10" x1="78.298" y1="35.628" x2="67.467" y2="46.128" fill="#000000"/><path d="M37.5,63.303c-7.046-6.652-11.607-15.901-11.625-24.639l-3.664-0.157c0.018,10.14,4.112,20.277,12.288,28.002  c8.175,7.717,18.911,11.587,29.651,11.601v-3.984C54.893,74.111,44.547,69.955,37.5,63.303z"/></svg>